<svg width="20" height="25" viewBox="0 0 20 25" fill="none" xmlns="http://www.w3.org/2000/svg">
<path d="M11.6648 1.08027C11.2102 -0.329412 8.85227 -0.390447 8.34091 1.08027C5.68182 8.78398 0 10.8787 0 16.3036C0 21.1132 4.47443 25 10 25C15.5256 25 20 21.1118 20 16.3036C20 10.8446 14.3352 8.81816 11.6648 1.08027ZM10 21.875C6.49148 21.875 3.63636 19.4213 3.63636 16.4501C3.63636 16.0167 4.04119 15.6688 4.54545 15.6688C5.04972 15.6688 5.45455 16.0167 5.45455 16.4501C5.45455 18.6044 7.49318 20.3124 10 20.3124C10.5043 20.3124 10.9091 20.6603 10.9091 21.0498C10.9091 21.5283 10.5057 21.875 10 21.875Z" fill="#383838"/>
</svg>
