<svg width="15" height="13" viewBox="0 0 15 13" fill="none" xmlns="http://www.w3.org/2000/svg">
<path d="M4.41205 0.574004C4.04584 0.219866 3.45111 0.219866 3.0849 0.574004L0.2724 3.29378C-0.093811 3.64792 -0.093811 4.22304 0.2724 4.57718C0.638611 4.93132 1.23334 4.93132 1.59955 4.57718L2.81244 3.40427L2.81244 12.0934C2.81244 12.5949 3.23138 13 3.74994 13C4.26849 13 4.68744 12.5949 4.68744 12.0934L4.68744 3.40427L5.90033 4.57718C6.26654 4.93132 6.86127 4.93132 7.22748 4.57718C7.59369 4.22304 7.59369 3.64792 7.22748 3.29378L4.41498 0.574004H4.41205ZM14.7245 10.0167C15.0908 9.6626 15.0908 9.08748 14.7245 8.73334C14.3583 8.37921 13.7636 8.37921 13.3974 8.73334L12.1874 9.90342V1.21429C12.1874 0.712827 11.7685 0.307693 11.2499 0.307693C10.7314 0.307693 10.3124 0.712827 10.3124 1.21429V9.90342L9.09955 8.73051C8.73334 8.37637 8.13861 8.37637 7.7724 8.73051C7.40619 9.08465 7.40619 9.65977 7.7724 10.0139L10.5849 12.7337C10.9511 13.0878 11.5458 13.0878 11.912 12.7337L14.7245 10.0139V10.0167Z" fill="#383838"/>
</svg>
