<svg width="28" height="25" viewBox="0 0 28 25" fill="none" xmlns="http://www.w3.org/2000/svg">
<path d="M26.7896 22.612L23.8924 22.656L25.3206 20.4709C25.6791 19.9279 25.7459 19.238 25.4968 18.6276C25.2416 18.0232 24.7132 17.5778 24.0749 17.4436L20.6357 16.7356L19.9306 13.281C19.7969 12.634 19.3594 12.0969 18.7517 11.8464C18.1441 11.59 17.4577 11.6633 16.9225 12.0234L13.9903 13.9646L11.0639 12.0163C9.97014 11.2898 8.31736 11.9736 8.05583 13.2673L7.35097 16.7282L3.91951 17.4314C3.2691 17.5656 2.74701 18.0051 2.49132 18.6154C2.24826 19.2258 2.30903 19.9094 2.67361 20.4587L4.11979 22.656L1.16667 22.6556C0.525 22.612 0 23.1833 0 23.7839C0 24.3845 0.525 24.9997 1.16667 24.9997H26.7896C27.475 24.9997 28 24.4724 28 23.7839C28 23.0954 27.475 22.612 26.7896 22.612ZM11.4042 22.656C11.629 21.8933 12.1819 21.2399 12.966 20.9104C14.3515 20.3366 15.9556 21.0019 16.5268 22.3938C16.5633 22.4792 16.5815 22.5708 16.6058 22.6562H11.4042V22.656ZM21.0972 22.656H18.9948C18.934 22.2653 18.8429 21.8747 18.6849 21.4963C17.6213 18.9084 14.656 17.6755 12.0786 18.7434C10.3931 19.448 9.28958 20.9665 9.03194 22.656H6.91736L4.93014 19.6223L9.34792 18.7131L10.2472 14.2756L14.0087 16.778L17.764 14.2815L18.6754 18.719L23.0869 19.6345L21.0972 22.656ZM10.8938 5.86397L12.8333 4.00069V9.76534C12.8333 10.4148 13.3583 10.9372 14 10.9372C14.6417 10.9372 15.1667 10.4123 15.1667 9.76534V4.00069L17.064 5.90645C17.291 6.13741 17.5924 6.24971 17.8889 6.24971C18.1854 6.24971 18.4858 6.13526 18.7138 5.9064C19.1695 5.44864 19.1695 4.70718 18.7138 4.24918L14.8249 0.342926C14.3692 -0.114838 13.631 -0.114838 13.1751 0.342926L9.28618 4.24918C8.83045 4.70694 8.83045 5.44839 9.28618 5.9064C9.74191 6.36441 10.4806 6.36202 10.8938 5.86397Z" fill="#383838"/>
</svg>
