<svg width="28" height="25" viewBox="0 0 28 25" fill="none" xmlns="http://www.w3.org/2000/svg">
<path d="M26.7896 22.6123H23.8924L25.3206 20.4272C25.6791 19.8843 25.7459 19.1943 25.4968 18.584C25.2416 17.9795 24.7132 17.5342 24.0749 17.3999L20.6357 16.6919L19.8868 13.2812C19.7531 12.6343 19.3156 12.0972 18.708 11.8467C18.1003 11.5903 17.414 11.6636 16.8787 12.0237L13.9903 13.9648L11.0639 12.0166C9.97014 11.29 8.31736 11.9739 8.05583 13.2676L7.35097 16.728L3.91951 17.3877C3.2691 17.522 2.74701 17.9614 2.49132 18.5718C2.24826 19.1821 2.30903 19.8657 2.67361 20.415L4.11979 22.6123L1.16667 22.6121C0.525 22.6123 0 23.1836 0 23.7842C0 24.4727 0.525 24.9561 1.16667 24.9561H26.7896C27.475 24.9561 28 24.4727 28 23.7842C28 23.1836 27.475 22.6123 26.7896 22.6123ZM11.4042 22.6123C11.629 21.8496 12.1819 21.1963 12.966 20.8667C14.3515 20.293 15.9556 20.9583 16.5268 22.3501C16.5633 22.4355 16.5815 22.5271 16.6058 22.6125H11.4042V22.6123ZM21.0535 22.6123H18.951C18.8903 22.2217 18.7991 21.8311 18.6411 21.4526C17.5775 18.8647 14.6123 17.6318 12.0349 18.6997C10.3457 19.4019 9.24559 20.9214 8.98455 22.6123H6.86997L4.88274 19.5786L9.30052 18.6694L10.1998 14.2324L13.9614 16.7349L17.7166 14.2388L18.628 18.6758L23.0395 19.5913L21.0535 22.6123ZM13.1736 10.5518C13.6293 11.0095 14.3675 11.0095 14.8235 10.5518L18.7124 6.64551C19.1681 6.18774 19.1681 5.44629 18.7124 4.98828C18.2566 4.53027 17.5185 4.53052 17.0625 4.98828L15.1667 6.93848V1.17188C15.1667 0.524902 14.6465 0 14 0C13.3535 0 12.8333 0.524902 12.8333 1.17188V6.93848L10.8938 5.0293C10.709 4.80176 10.4076 4.6875 10.1111 4.6875C9.81458 4.6875 9.5132 4.80176 9.28472 5.0293C8.82899 5.48706 8.82899 6.22852 9.28472 6.68652L13.1736 10.5518Z" fill="#383838"/>
</svg>
