<svg width="25" height="25" viewBox="0 0 25 25" fill="none" xmlns="http://www.w3.org/2000/svg">
<path d="M14.0625 1.5625C14.0625 2.42676 14.7607 3.125 15.625 3.125H17.1875C18.0518 3.125 18.75 3.82324 18.75 4.6875C18.75 5.55176 18.0518 6.25 17.1875 6.25H1.5625C0.698242 6.25 0 6.94824 0 7.8125C0 8.67676 0.698242 9.375 1.5625 9.375H17.1875C19.7754 9.375 21.875 7.27539 21.875 4.6875C21.875 2.09961 19.7754 0 17.1875 0H15.625C14.7607 0 14.0625 0.698242 14.0625 1.5625ZM17.1875 18.75C17.1875 19.6143 17.8857 20.3125 18.75 20.3125H20.3125C22.9004 20.3125 25 18.2129 25 15.625C25 13.0371 22.9004 10.9375 20.3125 10.9375H1.5625C0.698242 10.9375 0 11.6357 0 12.5C0 13.3643 0.698242 14.0625 1.5625 14.0625H20.3125C21.1768 14.0625 21.875 14.7607 21.875 15.625C21.875 16.4893 21.1768 17.1875 20.3125 17.1875H18.75C17.8857 17.1875 17.1875 17.8857 17.1875 18.75ZM6.25 25H7.8125C10.4004 25 12.5 22.9004 12.5 20.3125C12.5 17.7246 10.4004 15.625 7.8125 15.625H1.5625C0.698242 15.625 0 16.3232 0 17.1875C0 18.0518 0.698242 18.75 1.5625 18.75H7.8125C8.67676 18.75 9.375 19.4482 9.375 20.3125C9.375 21.1768 8.67676 21.875 7.8125 21.875H6.25C5.38574 21.875 4.6875 22.5732 4.6875 23.4375C4.6875 24.3018 5.38574 25 6.25 25Z" fill="#383838"/>
</svg>
