<svg width="251" height="238" viewBox="0 0 251 238" fill="none" xmlns="http://www.w3.org/2000/svg">
<path d="M119.25 0C53.5307 0 0.25 53.2807 0.25 119C0.25 184.719 53.5307 238 119.25 238C184.969 238 238.25 184.719 238.25 119C238.25 53.2807 184.969 0 119.25 0Z" fill="url(#paint0_linear_19_22)"/>
<path opacity="0.05" d="M212.738 121.781C197.719 91.2688 140.9 93.7875 129.2 135.138C84.4688 136.7 80.6438 211.575 125.25 210.806C130.606 210.806 166.238 210.806 193.969 210.806C218.488 190.813 234.75 161.213 237.263 127.75C232.738 123.6 221.038 120.119 212.738 121.781Z" fill="#F7F7F7"/>
<path opacity="0.07" d="M212.281 122.962C196.069 92.5813 141.169 96.9312 130.563 135.969C88.875 137.344 86.7375 204.762 128.369 205.119C133.931 205.169 175.4 205.119 199.65 205.119C220.663 186.069 234.594 159.281 237.144 129.244C231.856 124.675 220.856 121.406 212.281 122.962Z" fill="#F7F7F7"/>
<path opacity="0.07" d="M211.825 124.144C194.412 93.8875 141.431 100.069 131.931 136.8C93.2875 137.988 92.8437 199.1 131.5 199.438C137.269 199.487 184.569 199.438 205.344 199.438C222.856 181.331 234.45 157.356 237.037 130.75C230.975 125.756 220.669 122.694 211.825 124.144Z" fill="#F7F7F7"/>
<path d="M215.875 125C214.344 125 212.85 125.137 211.369 125.331C203.487 113.812 190.256 106.25 175.25 106.25C155.388 106.25 138.638 119.5 133.3 137.631C118.4 138.337 106.5 150.544 106.5 165.625C106.5 181.156 119.094 193.75 134.625 193.75C141.406 193.75 208.844 193.75 215.875 193.75C234.863 193.75 250.25 178.363 250.25 159.375C250.25 140.388 234.863 125 215.875 125Z" fill="url(#paint1_linear_19_22)"/>
<defs>
<linearGradient id="paint0_linear_19_22" x1="7.89732" y1="7.64732" x2="203.226" y2="202.976" gradientUnits="userSpaceOnUse">
<stop stop-color="#FED100"/>
<stop offset="1" stop-color="#E36001"/>
</linearGradient>
<linearGradient id="paint1_linear_19_22" x1="152.581" y1="104.175" x2="204.25" y2="219.662" gradientUnits="userSpaceOnUse">
<stop stop-color="#FCFCFC"/>
<stop offset="1" stop-color="#C3C9CD"/>
</linearGradient>
</defs>
</svg>
